<svg width="343" height="226" viewBox="0 0 343 226" fill="none" xmlns="http://www.w3.org/2000/svg">
<rect width="343" height="226" fill="white"/>
<g clip-path="url(#clip0_129_4123)">
<mask id="path-1-inside-1_129_4123" fill="white">
<path d="M45 35H327V191H45V35Z"/>
</mask>
<mask id="path-3-inside-2_129_4123" fill="white">
<path d="M45 35H101.4V191H45V35Z"/>
</mask>
<path d="M45 35.5H101.4V34.5H45V35.5Z" fill="#D8D9DA" mask="url(#path-3-inside-2_129_4123)"/>
<mask id="path-5-inside-3_129_4123" fill="white">
<path d="M45 86.3334H101.4V137.667H45V86.3334Z"/>
</mask>
<path d="M45 86.8334H101.4V85.8334H45V86.8334Z" fill="#D8D9DA" mask="url(#path-5-inside-3_129_4123)"/>
<mask id="path-7-inside-4_129_4123" fill="white">
<path d="M45 137.667H101.4V189H45V137.667Z"/>
</mask>
<path d="M45 138.167H101.4V137.167H45V138.167Z" fill="#D8D9DA" mask="url(#path-7-inside-4_129_4123)"/>
<mask id="path-9-inside-5_129_4123" fill="white">
<path d="M101.4 35H157.8V191H101.4V35Z"/>
</mask>
<path d="M101.4 35.5H157.8V34.5H101.4V35.5Z" fill="#D8D9DA" mask="url(#path-9-inside-5_129_4123)"/>
<mask id="path-11-inside-6_129_4123" fill="white">
<path d="M101.4 86.3334H157.8V137.667H101.4V86.3334Z"/>
</mask>
<path d="M101.4 86.8334H157.8V85.8334H101.4V86.8334Z" fill="#D8D9DA" mask="url(#path-11-inside-6_129_4123)"/>
<mask id="path-13-inside-7_129_4123" fill="white">
<path d="M101.4 137.667H157.8V189H101.4V137.667Z"/>
</mask>
<path d="M101.4 138.167H157.8V137.167H101.4V138.167Z" fill="#D8D9DA" mask="url(#path-13-inside-7_129_4123)"/>
<mask id="path-15-inside-8_129_4123" fill="white">
<path d="M157.8 35H214.2V191H157.8V35Z"/>
</mask>
<path d="M157.8 35.5H214.2V34.5H157.8V35.5Z" fill="#D8D9DA" mask="url(#path-15-inside-8_129_4123)"/>
<mask id="path-17-inside-9_129_4123" fill="white">
<path d="M157.8 86.3334H214.2V137.667H157.8V86.3334Z"/>
</mask>
<path d="M157.8 86.8334H214.2V85.8334H157.8V86.8334Z" fill="#D8D9DA" mask="url(#path-17-inside-9_129_4123)"/>
<mask id="path-19-inside-10_129_4123" fill="white">
<path d="M157.8 137.667H214.2V189H157.8V137.667Z"/>
</mask>
<path d="M157.8 138.167H214.2V137.167H157.8V138.167Z" fill="#D8D9DA" mask="url(#path-19-inside-10_129_4123)"/>
<mask id="path-21-inside-11_129_4123" fill="white">
<path d="M214.2 35H270.6V191H214.2V35Z"/>
</mask>
<path d="M214.2 35.5H270.6V34.5H214.2V35.5Z" fill="#D8D9DA" mask="url(#path-21-inside-11_129_4123)"/>
<mask id="path-23-inside-12_129_4123" fill="white">
<path d="M214.2 86.3334H270.6V137.667H214.2V86.3334Z"/>
</mask>
<path d="M214.2 86.8334H270.6V85.8334H214.2V86.8334Z" fill="#D8D9DA" mask="url(#path-23-inside-12_129_4123)"/>
<mask id="path-25-inside-13_129_4123" fill="white">
<path d="M214.2 137.667H270.6V189H214.2V137.667Z"/>
</mask>
<path d="M214.2 138.167H270.6V137.167H214.2V138.167Z" fill="#D8D9DA" mask="url(#path-25-inside-13_129_4123)"/>
<mask id="path-27-inside-14_129_4123" fill="white">
<path d="M270.6 35H327V191H270.6V35Z"/>
</mask>
<path d="M270.6 35.5H327V34.5H270.6V35.5Z" fill="#D8D9DA" mask="url(#path-27-inside-14_129_4123)"/>
<mask id="path-29-inside-15_129_4123" fill="white">
<path d="M270.6 86.3334H327V137.667H270.6V86.3334Z"/>
</mask>
<path d="M270.6 86.8334H327V85.8334H270.6V86.8334Z" fill="#D8D9DA" mask="url(#path-29-inside-15_129_4123)"/>
<mask id="path-31-inside-16_129_4123" fill="white">
<path d="M270.6 137.667H327V189H270.6V137.667Z"/>
</mask>
<path d="M270.6 138.167H327V137.167H270.6V138.167Z" fill="#D8D9DA" mask="url(#path-31-inside-16_129_4123)"/>
</g>
<path d="M327 190.5H45V191.5H327V190.5Z" fill="black" mask="url(#path-1-inside-1_129_4123)"/>
<rect width="43" height="15" transform="translate(284 195)" fill="white"/>
<path d="M298.143 206V203.23L295.233 199H296.193L298.553 202.5L300.933 199H301.853L298.943 203.22V206H298.143ZM304.188 206.12C302.768 206.12 301.608 205.03 301.608 203.43V203.41C301.608 201.92 302.658 200.72 304.088 200.72C305.618 200.72 306.498 201.94 306.498 203.45C306.498 203.55 306.498 203.61 306.488 203.7H302.388C302.498 204.82 303.288 205.45 304.208 205.45C304.918 205.45 305.418 205.16 305.838 204.72L306.318 205.15C305.798 205.73 305.168 206.12 304.188 206.12ZM302.388 203.13H305.718C305.638 202.19 305.098 201.37 304.068 201.37C303.168 201.37 302.488 202.12 302.388 203.13ZM310.066 206.11C308.826 206.11 307.596 205.13 307.596 203.43V203.41C307.596 201.72 308.826 200.72 310.066 200.72C311.026 200.72 311.646 201.24 312.046 201.82V200.83H312.816V206H312.046V204.96C311.626 205.58 311.016 206.11 310.066 206.11ZM310.206 205.42C311.166 205.42 312.076 204.61 312.076 203.42V203.4C312.076 202.21 311.166 201.41 310.206 201.41C309.206 201.41 308.386 202.15 308.386 203.4V203.42C308.386 204.64 309.226 205.42 310.206 205.42ZM314.586 206V200.83H315.356V202.18C315.736 201.32 316.486 200.7 317.466 200.74V201.57H317.406C316.276 201.57 315.356 202.38 315.356 203.94V206H314.586ZM323.907 206.12C322.907 206.12 322.037 205.64 321.407 205.01L321.927 204.44C322.537 205.03 323.207 205.4 323.917 205.4C324.917 205.4 325.607 204.74 325.607 203.85V203.83C325.607 202.96 324.887 202.36 323.867 202.36C323.277 202.36 322.807 202.54 322.397 202.76L321.867 202.41L322.067 199H326.097V199.73H322.757L322.607 201.97C323.017 201.79 323.407 201.66 323.987 201.66C325.347 201.66 326.407 202.47 326.407 203.8V203.82C326.407 205.19 325.367 206.12 323.907 206.12Z" fill="#64666A"/>
<rect width="52" height="15" transform="translate(160 195)" fill="white"/>
<path d="M173.231 206V203.23L170.321 199H171.281L173.641 202.5L176.021 199H176.941L174.031 203.22V206H173.231ZM179.275 206.12C177.855 206.12 176.695 205.03 176.695 203.43V203.41C176.695 201.92 177.745 200.72 179.175 200.72C180.705 200.72 181.585 201.94 181.585 203.45C181.585 203.55 181.585 203.61 181.575 203.7H177.475C177.585 204.82 178.375 205.45 179.295 205.45C180.005 205.45 180.505 205.16 180.925 204.72L181.405 205.15C180.885 205.73 180.255 206.12 179.275 206.12ZM177.475 203.13H180.805C180.725 202.19 180.185 201.37 179.155 201.37C178.255 201.37 177.575 202.12 177.475 203.13ZM185.153 206.11C183.913 206.11 182.683 205.13 182.683 203.43V203.41C182.683 201.72 183.913 200.72 185.153 200.72C186.113 200.72 186.733 201.24 187.133 201.82V200.83H187.903V206H187.133V204.96C186.713 205.58 186.103 206.11 185.153 206.11ZM185.293 205.42C186.253 205.42 187.163 204.61 187.163 203.42V203.4C187.163 202.21 186.253 201.41 185.293 201.41C184.293 201.41 183.473 202.15 183.473 203.4V203.42C183.473 204.64 184.313 205.42 185.293 205.42ZM189.674 206V200.83H190.444V202.18C190.824 201.32 191.574 200.7 192.554 200.74V201.57H192.494C191.364 201.57 190.444 202.38 190.444 203.94V206H189.674ZM199.025 206.12C197.895 206.12 196.975 205.59 196.395 204.86L196.975 204.36C197.485 205 198.155 205.4 199.045 205.4C199.965 205.4 200.625 204.89 200.625 204.1V204.08C200.625 203.29 199.935 202.81 198.755 202.81H198.035V202.13H198.775C199.735 202.13 200.435 201.64 200.435 200.84V200.82C200.435 200.12 199.845 199.6 198.935 199.6C198.155 199.6 197.605 199.96 197.125 200.6L196.545 200.18C197.105 199.39 197.845 198.88 198.955 198.88C200.295 198.88 201.235 199.67 201.235 200.75V200.77C201.235 201.69 200.635 202.17 200.015 202.41C200.815 202.67 201.425 203.19 201.425 204.08V204.1C201.425 205.22 200.465 206.12 199.025 206.12Z" fill="#64666A"/>
<g style="mix-blend-mode:multiply" opacity="0.5">
<path d="M327 75C327 75 190.5 137 45 190L327 179V75Z" fill="url(#paint0_linear_129_4123)"/>
</g>
<g style="mix-blend-mode:multiply" opacity="0.5">
<path d="M327 179L45.5 191H327V179Z" fill="url(#paint1_linear_129_4123)"/>
</g>
<path d="M202.409 173V164.6H208.637V165.92H203.885V168.104H208.097V169.436H203.885V171.68H208.697V173H202.409Z" fill="#005FB9"/>
<path d="M212.839 173.132C211.351 173.132 209.899 171.944 209.899 169.844V169.82C209.899 167.72 211.327 166.532 212.839 166.532C213.883 166.532 214.543 167.048 214.999 167.648V166.664H216.451V173H214.999V171.944C214.531 172.604 213.871 173.132 212.839 173.132ZM213.187 171.872C214.159 171.872 215.023 171.056 215.023 169.844V169.82C215.023 168.596 214.159 167.792 213.187 167.792C212.191 167.792 211.363 168.572 211.363 169.82V169.844C211.363 171.068 212.203 171.872 213.187 171.872Z" fill="#005FB9"/>
<path d="M218.322 173V166.664H219.786V168.092C220.182 167.144 220.914 166.496 222.03 166.544V168.08H221.946C220.674 168.08 219.786 168.908 219.786 170.588V173H218.322Z" fill="#005FB9"/>
<path d="M223.339 173V166.664H224.803V167.636C225.211 167.048 225.799 166.532 226.783 166.532C228.211 166.532 229.039 167.492 229.039 168.956V173H227.587V169.4C227.587 168.416 227.095 167.852 226.231 167.852C225.391 167.852 224.803 168.44 224.803 169.424V173H223.339Z" fill="#005FB9"/>
<path d="M230.876 165.692V164.312H232.436V165.692H230.876ZM230.924 173V166.664H232.388V173H230.924Z" fill="#005FB9"/>
<path d="M234.334 173V166.664H235.798V167.636C236.206 167.048 236.794 166.532 237.778 166.532C239.206 166.532 240.034 167.492 240.034 168.956V173H238.582V169.4C238.582 168.416 238.09 167.852 237.226 167.852C236.386 167.852 235.798 168.44 235.798 169.424V173H234.334Z" fill="#005FB9"/>
<path d="M244.667 174.944C243.623 174.944 242.651 174.68 241.835 174.188L242.375 173.096C243.059 173.516 243.767 173.756 244.631 173.756C245.927 173.756 246.635 173.096 246.635 171.824V171.344C246.107 172.016 245.447 172.496 244.403 172.496C242.903 172.496 241.523 171.392 241.523 169.532V169.508C241.523 167.636 242.927 166.532 244.403 166.532C245.471 166.532 246.131 167.024 246.623 167.612V166.664H248.075V171.704C248.075 172.772 247.799 173.564 247.271 174.092C246.695 174.668 245.807 174.944 244.667 174.944ZM244.787 171.26C245.795 171.26 246.647 170.552 246.647 169.52V169.496C246.647 168.464 245.795 167.768 244.787 167.768C243.779 167.768 242.987 168.452 242.987 169.496V169.52C242.987 170.552 243.791 171.26 244.787 171.26Z" fill="#005FB9"/>
<path d="M252.13 173.12C251.23 173.12 250.234 172.808 249.442 172.172L250.09 171.188C250.786 171.704 251.518 171.968 252.166 171.968C252.79 171.968 253.15 171.704 253.15 171.284V171.26C253.15 170.768 252.478 170.6 251.734 170.372C250.798 170.108 249.754 169.724 249.754 168.524V168.5C249.754 167.288 250.75 166.556 252.01 166.556C252.802 166.556 253.666 166.832 254.338 167.276L253.762 168.308C253.15 167.936 252.502 167.708 251.974 167.708C251.41 167.708 251.086 167.984 251.086 168.332V168.356C251.086 168.824 251.77 169.016 252.514 169.256C253.438 169.544 254.482 169.964 254.482 171.104V171.128C254.482 172.46 253.45 173.12 252.13 173.12Z" fill="#005FB9"/>
<path d="M255.994 168.308V166.664H257.59V168.308H255.994ZM255.994 173V171.344H257.59V173H255.994Z" fill="#005FB9"/>
<path d="M269.027 165.512L268.223 166.916C267.743 166.592 267.227 166.34 266.735 166.208V168.032C268.559 168.524 269.339 169.256 269.339 170.6V170.624C269.339 171.968 268.307 172.832 266.795 172.988V174.176H265.547V172.964C264.515 172.832 263.507 172.424 262.715 171.824L263.651 170.456C264.299 170.948 264.899 171.284 265.607 171.428V169.52C263.879 169.052 263.027 168.404 263.027 166.976V166.952C263.027 165.632 264.035 164.756 265.547 164.6V163.904H266.795V164.636C267.647 164.744 268.367 165.056 269.027 165.512ZM267.587 170.696C267.587 170.3 267.383 170.048 266.735 169.808V171.488C267.299 171.404 267.587 171.152 267.587 170.72V170.696ZM264.779 166.868C264.779 167.252 264.947 167.492 265.607 167.732V166.1C265.019 166.172 264.779 166.46 264.779 166.844V166.868Z" fill="#005FB9"/>
<path d="M270.593 173V171.536L273.389 169.244C274.433 168.38 274.841 167.924 274.841 167.228C274.841 166.52 274.373 166.136 273.713 166.136C273.065 166.136 272.621 166.496 271.997 167.264L270.701 166.22C271.529 165.092 272.333 164.48 273.833 164.48C275.573 164.48 276.725 165.5 276.725 167.072V167.096C276.725 168.5 276.005 169.196 274.517 170.348L273.149 171.404H276.809V173H270.593Z" fill="#005FB9"/>
<path d="M281.909 173.144C279.665 173.144 278.189 171.26 278.189 168.824V168.8C278.189 166.364 279.701 164.456 281.933 164.456C284.153 164.456 285.653 166.34 285.653 168.776V168.8C285.653 171.236 284.153 173.144 281.909 173.144ZM281.933 171.476C283.049 171.476 283.757 170.348 283.757 168.824V168.8C283.757 167.276 283.013 166.124 281.909 166.124C280.805 166.124 280.085 167.24 280.085 168.776V168.8C280.085 170.336 280.817 171.476 281.933 171.476Z" fill="#005FB9"/>
<path d="M287.07 173L290.826 166.196H286.878V164.6H292.926V165.992L289.158 173H287.07Z" fill="#005FB9"/>
<path d="M293.101 173V171.08H295.045V173H293.101Z" fill="#005FB9"/>
<path d="M299.984 173.144C297.74 173.144 296.264 171.26 296.264 168.824V168.8C296.264 166.364 297.776 164.456 300.008 164.456C302.228 164.456 303.728 166.34 303.728 168.776V168.8C303.728 171.236 302.228 173.144 299.984 173.144ZM300.008 171.476C301.124 171.476 301.832 170.348 301.832 168.824V168.8C301.832 167.276 301.088 166.124 299.984 166.124C298.88 166.124 298.16 167.24 298.16 168.776V168.8C298.16 170.336 298.892 171.476 300.008 171.476Z" fill="#005FB9"/>
<path d="M308.222 173.12C306.362 173.12 304.982 172.16 304.982 170.696V170.672C304.982 169.652 305.45 169.052 306.338 168.644C305.69 168.248 305.27 167.708 305.27 166.808V166.784C305.27 165.5 306.446 164.48 308.222 164.48C309.998 164.48 311.174 165.488 311.174 166.784V166.808C311.174 167.708 310.754 168.248 310.106 168.644C310.958 169.088 311.462 169.628 311.462 170.624V170.648C311.462 172.208 310.082 173.12 308.222 173.12ZM308.222 168.032C308.954 168.032 309.422 167.6 309.422 167.012V166.988C309.422 166.472 308.978 166.004 308.222 166.004C307.466 166.004 307.022 166.46 307.022 166.976V167C307.022 167.588 307.49 168.032 308.222 168.032ZM308.222 171.596C309.134 171.596 309.674 171.14 309.674 170.552V170.528C309.674 169.88 309.062 169.496 308.222 169.496C307.382 169.496 306.77 169.88 306.77 170.528V170.552C306.77 171.128 307.31 171.596 308.222 171.596Z" fill="#005FB9"/>
<path fill-rule="evenodd" clip-rule="evenodd" d="M316.782 173.622L327 179L317.234 185.16L317.047 180.39L46.0392 190.999L45.9609 189.001L316.969 178.392L316.782 173.622Z" fill="#005FB9"/>
<path fill-rule="evenodd" clip-rule="evenodd" d="M309.763 73.2981L327 75L316.908 89.0765L313.952 82.5492C275.956 99.5893 164.03 148.792 45.5076 191.412L44.4924 188.589C162.9 146.01 274.737 96.8481 312.715 79.8163L309.763 73.2981Z" fill="#008254"/>
<path d="M222.26 52.768L221.054 54.874C220.334 54.388 219.56 54.01 218.822 53.812V56.548C221.558 57.286 222.728 58.384 222.728 60.4V60.436C222.728 62.452 221.18 63.748 218.912 63.982V65.764H217.04V63.946C215.492 63.748 213.98 63.136 212.792 62.236L214.196 60.184C215.168 60.922 216.068 61.426 217.13 61.642V58.78C214.538 58.078 213.26 57.106 213.26 54.964V54.928C213.26 52.948 214.772 51.634 217.04 51.4V50.356H218.912V51.454C220.19 51.616 221.27 52.084 222.26 52.768ZM220.1 60.544C220.1 59.95 219.794 59.572 218.822 59.212V61.732C219.668 61.606 220.1 61.228 220.1 60.58V60.544ZM215.888 54.802C215.888 55.378 216.14 55.738 217.13 56.098V53.65C216.248 53.758 215.888 54.19 215.888 54.766V54.802Z" fill="#008254"/>
<path d="M224.609 64V61.804L228.803 58.366C230.369 57.07 230.981 56.386 230.981 55.342C230.981 54.28 230.279 53.704 229.289 53.704C228.317 53.704 227.651 54.244 226.715 55.396L224.771 53.83C226.013 52.138 227.219 51.22 229.469 51.22C232.079 51.22 233.807 52.75 233.807 55.108V55.144C233.807 57.25 232.727 58.294 230.495 60.022L228.443 61.606H233.933V64H224.609Z" fill="#008254"/>
<path d="M235.734 66.916L235.5 65.782C236.742 65.656 237.354 65.026 237.264 64H236.148V61.12H239.064V63.55C239.064 65.926 237.876 66.88 235.734 66.916Z" fill="#008254"/>
<path d="M241.154 64V61.804L245.348 58.366C246.914 57.07 247.526 56.386 247.526 55.342C247.526 54.28 246.824 53.704 245.834 53.704C244.862 53.704 244.196 54.244 243.26 55.396L241.316 53.83C242.558 52.138 243.764 51.22 246.014 51.22C248.624 51.22 250.352 52.75 250.352 55.108V55.144C250.352 57.25 249.272 58.294 247.04 60.022L244.988 61.606H250.478V64H241.154Z" fill="#008254"/>
<path d="M258.129 64.216C254.763 64.216 252.549 61.39 252.549 57.736V57.7C252.549 54.046 254.817 51.184 258.165 51.184C261.495 51.184 263.745 54.01 263.745 57.664V57.7C263.745 61.354 261.495 64.216 258.129 64.216ZM258.165 61.714C259.839 61.714 260.901 60.022 260.901 57.736V57.7C260.901 55.414 259.785 53.686 258.129 53.686C256.473 53.686 255.393 55.36 255.393 57.664V57.7C255.393 60.004 256.491 61.714 258.165 61.714Z" fill="#008254"/>
<path d="M270.323 61.696C272.231 61.696 272.771 59.914 272.879 58.834C272.231 59.374 271.403 59.698 270.323 59.698C267.587 59.698 265.823 58.186 265.823 55.63V55.594C265.823 53.056 267.785 51.184 270.629 51.184C272.321 51.184 273.311 51.598 274.265 52.552C275.165 53.452 275.759 54.82 275.759 57.304V57.34C275.759 61.426 273.833 64.216 270.251 64.216C268.415 64.216 267.173 63.604 266.111 62.722L267.569 60.616C268.487 61.354 269.261 61.696 270.323 61.696ZM270.773 57.394C272.141 57.394 272.933 56.602 272.933 55.522V55.486C272.933 54.37 272.105 53.56 270.719 53.56C269.351 53.56 268.577 54.352 268.577 55.468V55.504C268.577 56.62 269.405 57.394 270.773 57.394Z" fill="#008254"/>
<path d="M277.763 64V61.12H280.679V64H277.763Z" fill="#008254"/>
<path d="M287.396 61.696C289.304 61.696 289.844 59.914 289.952 58.834C289.304 59.374 288.476 59.698 287.396 59.698C284.66 59.698 282.896 58.186 282.896 55.63V55.594C282.896 53.056 284.858 51.184 287.702 51.184C289.394 51.184 290.384 51.598 291.338 52.552C292.238 53.452 292.832 54.82 292.832 57.304V57.34C292.832 61.426 290.906 64.216 287.324 64.216C285.488 64.216 284.246 63.604 283.184 62.722L284.642 60.616C285.56 61.354 286.334 61.696 287.396 61.696ZM287.846 57.394C289.214 57.394 290.006 56.602 290.006 55.522V55.486C290.006 54.37 289.178 53.56 287.792 53.56C286.424 53.56 285.65 54.352 285.65 55.468V55.504C285.65 56.62 286.478 57.394 287.846 57.394Z" fill="#008254"/>
<path d="M295.232 64L300.866 53.794H294.944V51.4H304.016V53.488L298.364 64H295.232Z" fill="#008254"/>
<rect width="120" height="20" transform="translate(195 28.4097)" fill="white"/>
<path d="M232.008 41.2196V34.2196H237.198V35.3196H233.238V37.1396H236.748V38.2496H233.238V40.1196H237.248V41.2196H232.008Z" fill="#008254"/>
<path d="M240.7 41.3296C239.46 41.3296 238.25 40.3396 238.25 38.5896V38.5696C238.25 36.8196 239.44 35.8296 240.7 35.8296C241.57 35.8296 242.12 36.2596 242.5 36.7596V35.9396H243.71V41.2196H242.5V40.3396C242.11 40.8896 241.56 41.3296 240.7 41.3296ZM240.99 40.2796C241.8 40.2796 242.52 39.5996 242.52 38.5896V38.5696C242.52 37.5496 241.8 36.8796 240.99 36.8796C240.16 36.8796 239.47 37.5296 239.47 38.5696V38.5896C239.47 39.6096 240.17 40.2796 240.99 40.2796Z" fill="#008254"/>
<path d="M245.269 41.2196V35.9396H246.489V37.1296C246.819 36.3396 247.429 35.7996 248.359 35.8396V37.1196H248.289C247.229 37.1196 246.489 37.8096 246.489 39.2096V41.2196H245.269Z" fill="#008254"/>
<path d="M249.449 41.2196V35.9396H250.669V36.7496C251.009 36.2596 251.499 35.8296 252.319 35.8296C253.509 35.8296 254.199 36.6296 254.199 37.8496V41.2196H252.989V38.2196C252.989 37.3996 252.579 36.9296 251.859 36.9296C251.159 36.9296 250.669 37.4196 250.669 38.2396V41.2196H249.449Z" fill="#008254"/>
<path d="M255.731 35.1296V33.9796H257.031V35.1296H255.731ZM255.771 41.2196V35.9396H256.991V41.2196H255.771Z" fill="#008254"/>
<path d="M258.612 41.2196V35.9396H259.832V36.7496C260.172 36.2596 260.662 35.8296 261.482 35.8296C262.672 35.8296 263.362 36.6296 263.362 37.8496V41.2196H262.152V38.2196C262.152 37.3996 261.742 36.9296 261.022 36.9296C260.322 36.9296 259.832 37.4196 259.832 38.2396V41.2196H258.612Z" fill="#008254"/>
<path d="M267.223 42.8396C266.353 42.8396 265.543 42.6196 264.863 42.2096L265.313 41.2996C265.883 41.6496 266.473 41.8496 267.193 41.8496C268.273 41.8496 268.863 41.2996 268.863 40.2396V39.8396C268.423 40.3996 267.873 40.7996 267.003 40.7996C265.753 40.7996 264.603 39.8796 264.603 38.3296V38.3096C264.603 36.7496 265.773 35.8296 267.003 35.8296C267.893 35.8296 268.443 36.2396 268.853 36.7296V35.9396H270.063V40.1396C270.063 41.0296 269.833 41.6896 269.393 42.1296C268.913 42.6096 268.173 42.8396 267.223 42.8396ZM267.323 39.7696C268.163 39.7696 268.873 39.1796 268.873 38.3196V38.2996C268.873 37.4396 268.163 36.8596 267.323 36.8596C266.483 36.8596 265.823 37.4296 265.823 38.2996V38.3196C265.823 39.1796 266.493 39.7696 267.323 39.7696Z" fill="#008254"/>
<path d="M273.442 41.3196C272.692 41.3196 271.862 41.0596 271.202 40.5296L271.742 39.7096C272.322 40.1396 272.932 40.3596 273.472 40.3596C273.992 40.3596 274.292 40.1396 274.292 39.7896V39.7696C274.292 39.3596 273.732 39.2196 273.112 39.0296C272.332 38.8096 271.462 38.4896 271.462 37.4896V37.4696C271.462 36.4596 272.292 35.8496 273.342 35.8496C274.002 35.8496 274.722 36.0796 275.282 36.4496L274.802 37.3096C274.292 36.9996 273.752 36.8096 273.312 36.8096C272.842 36.8096 272.572 37.0396 272.572 37.3296V37.3496C272.572 37.7396 273.142 37.8996 273.762 38.0996C274.532 38.3396 275.402 38.6896 275.402 39.6396V39.6596C275.402 40.7696 274.542 41.3196 273.442 41.3196Z" fill="#008254"/>
<path d="M276.662 37.3096V35.9396H277.992V37.3096H276.662ZM276.662 41.2196V39.8396H277.992V41.2196H276.662Z" fill="#008254"/>
<path d="M220.859 40.5875C218.705 41.1112 215.715 39.3699 213.722 36.2651C211.994 33.5736 211.51 30.628 212.305 28.7585L211.969 28.2944L213.465 27.3332C213.465 27.3332 213.467 27.3309 213.47 27.3287C213.472 27.3287 213.476 27.3243 213.481 27.3221L213.501 27.3089C215.649 25.9675 219.217 27.7331 221.491 31.2732C223.776 34.831 223.889 38.8307 221.743 40.2074C221.681 40.2472 221.619 40.2825 221.558 40.3157L220.95 40.7068L220.859 40.583V40.5875Z" fill="#F9A600"/>
<path d="M220.85 40.7858C222.995 39.4081 222.882 35.4076 220.598 31.8505C218.313 28.2933 214.722 26.5265 212.577 27.9042C210.432 29.282 210.545 33.2824 212.829 36.8396C215.114 40.3968 218.705 42.1635 220.85 40.7858Z" fill="#FFC200"/>
<path d="M220.099 39.9146C221.737 38.8627 221.516 35.5992 219.606 32.6253C217.696 29.6514 214.82 28.0934 213.182 29.1453C211.545 30.1972 211.765 33.4607 213.675 36.4346C215.585 39.4085 218.461 40.9666 220.099 39.9146Z" fill="#F9A600"/>
<path d="M262.185 23.0833C260.933 21.8061 258.199 20.2835 254.858 19.1165C251.517 17.9495 248.429 17.4411 246.654 17.6615L245.542 17.2733L245.103 18.5305H245.108C244.798 19.8928 248.459 21.9188 253.27 23.5967C258.078 25.2746 262.245 25.9833 262.852 24.7262H262.857L263.295 23.4715L262.185 23.0833Z" fill="#F9A600"/>
<mask id="mask0_129_4123" style="mask-type:luminance" maskUnits="userSpaceOnUse" x="245" y="17" width="19" height="9">
<path d="M262.185 23.0833C260.933 21.8061 258.199 20.2835 254.858 19.1165C251.517 17.9495 248.429 17.4411 246.654 17.6615L245.542 17.2733L245.103 18.5305H245.108C244.798 19.8928 248.459 21.9188 253.27 23.5967C258.078 25.2746 262.245 25.9833 262.852 24.7262H262.857L263.295 23.4715L262.185 23.0833Z" fill="white"/>
</mask>
<g mask="url(#mask0_129_4123)">
<path d="M259.088 23.0608L258.306 25.5626L263.167 26.389L264.284 23.191L262.967 23.464L259.088 23.0608Z" fill="#E38B00"/>
</g>
<path d="M263.22 23.5365C263.479 22.7961 259.714 20.8089 254.812 19.0979C249.91 17.387 245.726 16.6002 245.468 17.3406C245.209 18.081 248.974 20.0683 253.876 21.7792C258.778 23.4902 262.962 24.2769 263.22 23.5365Z" fill="#FFC200"/>
<path d="M261.875 23.0226C262.037 22.559 258.845 21.0235 254.746 19.5928C250.647 18.1622 247.193 17.3782 247.031 17.8418C246.87 18.3053 250.061 19.8409 254.161 21.2716C258.26 22.7022 261.714 23.4862 261.875 23.0226Z" fill="#F9A600"/>
<path d="M297.557 45.5707C299.032 45.2736 301.359 44.0481 303.714 42.2308C306.068 40.4135 307.843 38.4729 308.503 37.122L309.287 36.517L308.602 35.6303H308.598C307.782 34.7899 304.675 36.44 301.287 39.056C297.898 41.672 295.485 44.2836 296.094 45.2868H296.09L296.774 46.1757L297.557 45.5707Z" fill="#F9A600"/>
<mask id="mask1_129_4123" style="mask-type:luminance" maskUnits="userSpaceOnUse" x="296" y="35" width="14" height="12">
<path d="M297.557 45.5707C299.032 45.2736 301.359 44.0481 303.714 42.2308C306.068 40.4135 307.843 38.4729 308.503 37.122L309.287 36.517L308.602 35.6303H308.598C307.782 34.7899 304.675 36.44 301.287 39.056C297.898 41.672 295.485 44.2836 296.094 45.2868H296.09L296.774 46.1757L297.557 45.5707Z" fill="white"/>
</mask>
<g mask="url(#mask1_129_4123)">
<path d="M298.996 43.3991L297.593 41.6984L294.779 44.7456L296.519 46.9985L296.933 45.9447L298.996 43.3991Z" fill="#E38B00"/>
</g>
<path d="M303.745 42.207C307.199 39.5396 309.673 36.954 309.27 36.4317C308.867 35.9094 305.739 37.6483 302.284 40.3157C298.83 42.983 296.356 45.5686 296.759 46.0909C297.162 46.6132 300.29 44.8743 303.745 42.207Z" fill="#FFC200"/>
<path d="M303.422 41.9295C306.311 39.6995 308.448 37.6275 308.196 37.3014C307.945 36.9754 305.399 38.5188 302.511 40.7487C299.622 42.9787 297.485 45.0507 297.737 45.3768C297.989 45.7028 300.534 44.1594 303.422 41.9295Z" fill="#F9A600"/>
<path d="M204.014 45.2538L201.286 42.4097L200.125 46.0331L197 48.5131L200.982 49.5692L203.714 52.4097L204.871 48.7899L208 46.3062L204.014 45.2538Z" fill="#40AD87"/>
<path d="M290.899 32.188L291.371 29.4097L288.777 30.5113L286 30.0389L287.101 32.6333L286.629 35.4097L289.223 34.31L292 34.7824L290.899 32.188Z" fill="#40AD87"/>
<rect width="19.3826" height="15" transform="translate(16 27.4097)" fill="white"/>
<path d="M20.91 32.0296L20.48 32.6296C19.99 32.2296 19.5 31.9896 18.97 31.9096V34.3796C20.49 34.7196 21.13 35.2996 21.13 36.3196C21.13 37.3996 20.25 38.1296 19 38.2096V39.1896H18.36V38.1896C17.47 38.1096 16.7 37.7596 16 37.1596L16.45 36.5596C17.05 37.0996 17.64 37.4296 18.39 37.5196V35.0096C16.91 34.6596 16.26 34.1196 16.26 33.0696V33.0596C16.26 32.0296 17.13 31.2696 18.36 31.2096V30.6296H19V31.2296C19.75 31.3096 20.32 31.5796 20.91 32.0296ZM20.36 36.3696C20.36 35.7796 20.07 35.4296 18.97 35.1396V37.5496C19.83 37.4996 20.36 37.0296 20.36 36.3796V36.3696ZM17.03 33.0096C17.03 33.5796 17.29 33.9496 18.39 34.2396V31.8796C17.54 31.9196 17.03 32.3996 17.03 33.0096Z" fill="#64666A"/>
<path d="M24.9074 38.3296C23.7774 38.3296 22.8574 37.7996 22.2774 37.0696L22.8574 36.5696C23.3674 37.2096 24.0374 37.6096 24.9274 37.6096C25.8474 37.6096 26.5074 37.0996 26.5074 36.3096V36.2896C26.5074 35.4996 25.8174 35.0196 24.6374 35.0196H23.9174V34.3396H24.6574C25.6174 34.3396 26.3174 33.8496 26.3174 33.0496V33.0296C26.3174 32.3296 25.7274 31.8096 24.8174 31.8096C24.0374 31.8096 23.4874 32.1696 23.0074 32.8096L22.4274 32.3896C22.9874 31.5996 23.7274 31.0896 24.8374 31.0896C26.1774 31.0896 27.1174 31.8796 27.1174 32.9596V32.9796C27.1174 33.8996 26.5174 34.3796 25.8974 34.6196C26.6974 34.8796 27.3074 35.3996 27.3074 36.2896V36.3096C27.3074 37.4296 26.3474 38.3296 24.9074 38.3296Z" fill="#64666A"/>
<path d="M28.7926 38.2096V30.9096H29.5626V35.9496L32.3526 33.0396H33.3126L31.1426 35.2596L33.3826 38.2096H32.4626L30.6126 35.7996L29.5626 36.8596V38.2096H28.7926Z" fill="#64666A"/>
<rect width="19.3337" height="15" transform="translate(16 78.4097)" fill="white"/>
<path d="M20.91 83.0296L20.48 83.6296C19.99 83.2296 19.5 82.9896 18.97 82.9096V85.3796C20.49 85.7196 21.13 86.2996 21.13 87.3196C21.13 88.3996 20.25 89.1296 19 89.2096V90.1896H18.36V89.1896C17.47 89.1096 16.7 88.7596 16 88.1596L16.45 87.5596C17.05 88.0996 17.64 88.4296 18.39 88.5196V86.0096C16.91 85.6596 16.26 85.1196 16.26 84.0696V84.0596C16.26 83.0296 17.13 82.2696 18.36 82.2096V81.6296H19V82.2296C19.75 82.3096 20.32 82.5796 20.91 83.0296ZM20.36 87.3696C20.36 86.7796 20.07 86.4296 18.97 86.1396V88.5496C19.83 88.4996 20.36 88.0296 20.36 87.3796V87.3696ZM17.03 84.0096C17.03 84.5796 17.29 84.9496 18.39 85.2396V82.8796C17.54 82.9196 17.03 83.3996 17.03 84.0096Z" fill="#64666A"/>
<path d="M22.3274 89.2096V88.5996L24.8674 86.3596C25.9374 85.3996 26.3274 84.8596 26.3274 84.1596C26.3274 83.3396 25.6774 82.8196 24.9174 82.8196C24.1174 82.8196 23.5974 83.2396 23.0374 84.0196L22.4574 83.5996C23.0874 82.6596 23.7474 82.1096 24.9774 82.1096C26.2374 82.1096 27.1474 82.9496 27.1474 84.0896V84.1096C27.1474 85.1296 26.6074 85.7596 25.3774 86.8296L23.5074 88.4896H27.2174V89.2096H22.3274Z" fill="#64666A"/>
<path d="M28.7438 89.2096V81.9096H29.5138V86.9496L32.3038 84.0396H33.2638L31.0938 86.2596L33.3337 89.2096H32.4137L30.5638 86.7996L29.5138 87.8596V89.2096H28.7438Z" fill="#64666A"/>
<rect width="21" height="15" transform="translate(16 130)" fill="white"/>
<path d="M24.9786 134.62L24.5486 135.22C24.0586 134.82 23.5686 134.58 23.0386 134.5V136.97C24.5586 137.31 25.1986 137.89 25.1986 138.91C25.1986 139.99 24.3186 140.72 23.0686 140.8V141.78H22.4286V140.78C21.5386 140.7 20.7686 140.35 20.0686 139.75L20.5186 139.15C21.1186 139.69 21.7086 140.02 22.4586 140.11V137.6C20.9786 137.25 20.3286 136.71 20.3286 135.66V135.65C20.3286 134.62 21.1986 133.86 22.4286 133.8V133.22H23.0686V133.82C23.8186 133.9 24.3886 134.17 24.9786 134.62ZM24.4286 138.96C24.4286 138.37 24.1386 138.02 23.0386 137.73V140.14C23.8986 140.09 24.4286 139.62 24.4286 138.97V138.96ZM21.0986 135.6C21.0986 136.17 21.3586 136.54 22.4586 136.83V134.47C21.6086 134.51 21.0986 134.99 21.0986 135.6Z" fill="#64666A"/>
<path d="M27.706 140.8V134.57L26.386 134.98L26.196 134.34L27.906 133.75H28.486V140.8H27.706Z" fill="#64666A"/>
<path d="M30.41 140.8V133.5H31.18V138.54L33.97 135.63H34.93L32.76 137.85L35 140.8H34.08L32.23 138.39L31.18 139.45V140.8H30.41Z" fill="#64666A"/>
<rect width="21" height="15" transform="translate(16 184)" fill="white"/>
<path d="M27.5326 188.62L27.1026 189.22C26.6126 188.82 26.1226 188.58 25.5926 188.5V190.97C27.1126 191.31 27.7526 191.89 27.7526 192.91C27.7526 193.99 26.8726 194.72 25.6226 194.8V195.78H24.9826V194.78C24.0926 194.7 23.3226 194.35 22.6226 193.75L23.0726 193.15C23.6726 193.69 24.2626 194.02 25.0126 194.11V191.6C23.5326 191.25 22.8826 190.71 22.8826 189.66V189.65C22.8826 188.62 23.7526 187.86 24.9826 187.8V187.22H25.6226V187.82C26.3726 187.9 26.9426 188.17 27.5326 188.62ZM26.9826 192.96C26.9826 192.37 26.6926 192.02 25.5926 191.73V194.14C26.4526 194.09 26.9826 193.62 26.9826 192.97V192.96ZM23.6526 189.6C23.6526 190.17 23.9126 190.54 25.0126 190.83V188.47C24.1626 188.51 23.6526 188.99 23.6526 189.6Z" fill="#64666A"/>
<path d="M32.04 194.92C30.23 194.92 29.09 193.28 29.09 191.32V191.3C29.09 189.34 30.26 187.68 32.06 187.68C33.86 187.68 35 189.32 35 191.28V191.3C35 193.26 33.84 194.92 32.04 194.92ZM32.06 194.2C33.37 194.2 34.18 192.85 34.18 191.32V191.3C34.18 189.77 33.34 188.4 32.04 188.4C30.73 188.4 29.91 189.74 29.91 191.28V191.3C29.91 192.83 30.75 194.2 32.06 194.2Z" fill="#64666A"/>
<defs>
<linearGradient id="paint0_linear_129_4123" x1="327" y1="170" x2="177" y2="137" gradientUnits="userSpaceOnUse">
<stop stop-color="#40AD87" stop-opacity="0"/>
<stop offset="1" stop-color="#40AD87"/>
</linearGradient>
<linearGradient id="paint1_linear_129_4123" x1="188" y1="186" x2="309" y2="191" gradientUnits="userSpaceOnUse">
<stop stop-color="#005FB9"/>
<stop offset="1" stop-color="#005FB9" stop-opacity="0"/>
</linearGradient>
<clipPath id="clip0_129_4123">
<path d="M45 35H327V191H45V35Z" fill="white"/>
</clipPath>
</defs>
</svg>
